<?xml version="1.0" encoding="utf-8"?>
<svg xmlns="http://www.w3.org/2000/svg" width="227" height="227" viewBox="0 0 227 227" fill="none">
<path d="M89.5999 120.1H108.7V72C108.7 69.3 107.6 66.9 105.9 65.2L77.5999 36.8C75.8999 35 73.5 34 70.8 34H22.7V53.1H75.3C83.2 53.1 89.5999 59.5 89.5999 67.4V120.1Z" fill="#007DC5"/>
<path d="M137.2 120.1H118V72C118 69.3 119.1 66.9 120.8 65.2L149.1 36.9C150.8 35.1 153.2 34.1 155.9 34.1H204V53.2H151.4C143.5 53.2 137.1 59.6 137.1 67.5V120.1H137.2Z" fill="#007DC5"/>
<path d="M22.7 157.9H27.2V162H27.2999C28.5999 159.3 31.4 157.3 34.2 157.3C35.6 157.3 36.4 157.5 37.4 157.7V162C36.5 161.6 35.5 161.5 34.7 161.5C30.4 161.5 27.5 165.6 27.5 172.3V184.3H22.7V157.9Z" fill="#007DC5"/>
<path d="M171 174C171 178 168.5 181 163.7 181C161.5 181 158.8 179.5 158.8 176.7C158.8 172 165.3 171.6 167.9 171.6C168.9 171.6 170 171.7 171 171.7V174ZM156.9 163.9C158.9 162.2 161.8 161.2 164.5 161.2C169.3 161.2 171 163.6 171 168.1C169.1 168 167.8 168 165.8 168C160.8 168 153.6 170.1 153.6 176.7C153.6 182.5 157.6 184.9 163.3 184.9C167.7 184.9 170.3 182.5 171.4 180.9H171.5V184.3H175.8V168.2C175.8 161 172.8 157.3 165.3 157.3C161.9 157.3 159.1 158.3 156.6 159.8L156.9 163.9Z" fill="#007DC5"/>
<path d="M53.8 174C53.8 178 51.3 181 46.5 181C44.3 181 41.6 179.5 41.6 176.7C41.6 172 48.1 171.6 50.7 171.6C51.7 171.6 52.8 171.7 53.8 171.7V174ZM39.7 163.9C41.7 162.2 44.6 161.2 47.3 161.2C52.1 161.2 53.8 163.6 53.8 168.1C51.9 168 50.6 168 48.6 168C43.6 168 36.4 170.1 36.4 176.7C36.4 182.5 40.4 184.9 46 184.9C50.4 184.9 53 182.5 54.1 180.9H54.2V184.3H58.5V168.2C58.5 161 55.5 157.3 48 157.3C44.6 157.3 41.8 158.3 39.3 159.8L39.7 163.9Z" fill="#007DC5"/>
<path d="M62.6 157.9H67.3V162H67.4C68.8 159 72.4 157.2 76 157.2C82.8 157.2 85.8 161.4 85.8 168.5V184.2H81V170.5C81 164.3 79.7 161.3 75.4 161.1C69.9 161.1 67.4 165.6 67.4 172V184.2H62.6V157.9Z" fill="#007DC5"/>
<path d="M117.4 179.1C119.3 180.3 122 181 123.4 181C125.6 181 128.3 180.1 128.3 177.2C128.3 172.4 116.9 172.8 116.9 165.4C116.9 159.9 121 157.3 126.2 157.3C128.5 157.3 130.3 157.8 132.2 158.3L131.8 162.5C130.7 161.8 127.8 161.1 126.7 161.1C124.2 161.1 122.1 162.1 122.1 164.3C122.1 169.7 133.5 168.1 133.5 176.6C133.5 182.2 129 184.8 124.3 184.8C121.8 184.8 119.3 184.5 117.1 183.4L117.4 179.1Z" fill="#007DC5"/>
<path d="M152 161.8H145V176.3C145 179.4 146.9 181 149.1 181C150.6 181 151.7 180.5 152.4 180.1V184.2C151.3 184.5 149.8 184.9 148.3 184.9C143.3 184.9 140.2 182.5 140.2 177.3V161.8H134.3V157.9H140.2V151.8L145 150.3V157.9H152V161.8Z" fill="#007DC5"/>
<path d="M184.3 171C184.2 166.2 186.3 161.2 191.5 161.2C196.8 161.2 199.3 166.2 199.3 171.2C199.3 175.6 197 181.1 191.6 181.1C186.3 181 184.2 175.1 184.3 171ZM199.5 184.2H204.1V145.5H199.3V161.5H199.2C197.7 159.1 195.1 157.3 190.5 157.3C182.9 157.3 179.1 163.5 179.1 170.6C179.1 177.8 182.5 184.9 190.4 184.9C195.1 184.9 198.1 182.5 199.4 180.6H199.5V184.2Z" fill="#007DC5"/>
<path d="M94.3 171C94.2 166.2 96.3 161.2 101.5 161.2C106.8 161.2 109.3 166.2 109.3 171.2C109.3 175.6 107 181.1 101.6 181.1C96.4 181 94.2 175.1 94.3 171ZM109.5 184.2H114.1V145.5H109.3V161.5H109.2C107.7 159.1 105.1 157.3 100.5 157.3C92.9 157.3 89.1 163.5 89.1 170.6C89.1 177.8 92.5 184.9 100.4 184.9C105.1 184.9 108.1 182.5 109.4 180.6H109.5V184.2Z" fill="#007DC5"/>
</svg>