<?xml version="1.0" encoding="utf-8"?>
<svg xmlns="http://www.w3.org/2000/svg" xmlns:xlink="http://www.w3.org/1999/xlink" version="1.0" id="katman_1" x="0px" y="0px" viewBox="0 0 600 450" style="enable-background:new 0 0 600 450;">
<style type="text/css">
	.st0{filter:url(#Adobe_OpacityMaskFilter);}
	.st1{fill-rule:evenodd;clip-rule:evenodd;fill:#FFFFFF;}
	.st2{mask:url(#b_00000016033192916957682610000009293254684833847960_);fill-rule:evenodd;clip-rule:evenodd;fill:#FFD402;}
	.st3{filter:url(#Adobe_OpacityMaskFilter_00000109726016163813294360000015856579681393167245_);}
	.st4{mask:url(#d_00000075128590360289908500000005030803010974619778_);fill-rule:evenodd;clip-rule:evenodd;fill:#67B34C;}
	.st5{filter:url(#Adobe_OpacityMaskFilter_00000054248637822094080680000005678227742812447129_);}
	.st6{mask:url(#f_00000179623646379838200640000007017860070538567081_);fill-rule:evenodd;clip-rule:evenodd;fill:#2153A1;}
	.st7{filter:url(#Adobe_OpacityMaskFilter_00000036232234935070910690000003524936212033164931_);}
	.st8{mask:url(#h_00000083075297567841547420000005352946991363769000_);fill-rule:evenodd;clip-rule:evenodd;fill:#2153A1;}
	.st9{filter:url(#Adobe_OpacityMaskFilter_00000002351415913399911240000009901499764963743652_);}
	.st10{mask:url(#j_00000001660805572338315870000010428127441209405590_);fill-rule:evenodd;clip-rule:evenodd;fill:#2153A1;}
	.st11{filter:url(#Adobe_OpacityMaskFilter_00000013915571460957270160000001444701622878806700_);}
	.st12{mask:url(#l_00000046304928120007312330000006925387468364900498_);fill-rule:evenodd;clip-rule:evenodd;fill:#2153A1;}
	.st13{filter:url(#Adobe_OpacityMaskFilter_00000015340544846852642860000004846312653663283075_);}
	.st14{mask:url(#n_00000005984082674680456330000001031791347275991949_);fill-rule:evenodd;clip-rule:evenodd;fill:#2153A1;}
	.st15{filter:url(#Adobe_OpacityMaskFilter_00000057108062583189262630000014360531356642769809_);}
	.st16{mask:url(#p_00000106829903645582332490000014997519787610363051_);fill-rule:evenodd;clip-rule:evenodd;fill:#2153A1;}
</style>
<g>
	<g transform="translate(14.182)">
		<defs>
			<filter id="Adobe_OpacityMaskFilter" filterUnits="userSpaceOnUse" x="97.2" y="164.5" width="53.1" height="107.4">
				<feColorMatrix type="matrix" values="1 0 0 0 0  0 1 0 0 0  0 0 1 0 0  0 0 0 1 0"/>
			</filter>
		</defs>
		
			<mask maskUnits="userSpaceOnUse" x="97.2" y="164.5" width="53.1" height="107.4" id="b_00000016033192916957682610000009293254684833847960_">
			<g class="st0">
				<path id="a_00000121996006134444347230000010442917531539810191_" class="st1" d="M123.8,184.6l-6.5,67.3&#xD;&#xA;					c4.3-0.5,8.6-0.8,12.9-1.1L123.8,184.6L123.8,184.6z"/>
			</g>
		</mask>
		<path class="st2" d="M97.2,271.9h53.1V164.5H97.2V271.9z"/>
	</g>
	<g transform="translate(16.545)">
		<defs>
			
				<filter id="Adobe_OpacityMaskFilter_00000152964431451522184950000003841970461587374230_" filterUnits="userSpaceOnUse" x="101.4" y="164.6" width="62.2" height="106.1">
				<feColorMatrix type="matrix" values="1 0 0 0 0  0 1 0 0 0  0 0 1 0 0  0 0 0 1 0"/>
			</filter>
		</defs>
		
			<mask maskUnits="userSpaceOnUse" x="101.4" y="164.6" width="62.2" height="106.1" id="d_00000075128590360289908500000005030803010974619778_">
			<g style="filter:url(#Adobe_OpacityMaskFilter_00000152964431451522184950000003841970461587374230_);">
				<path id="c_00000121252522497951158890000013798118539400521867_" class="st1" d="M121.5,184.6l6.4,66&#xD;&#xA;					c5.2-0.3,10.4-0.5,15.7-0.5l0-65.5H121.5L121.5,184.6z"/>
			</g>
		</mask>
		<path class="st4" d="M101.4,270.7h62.2V164.6h-62.2V270.7z"/>
	</g>
	<defs>
		
			<filter id="Adobe_OpacityMaskFilter_00000083053326797024058150000011861018156824534416_" filterUnits="userSpaceOnUse" x="60" y="164.5" width="98" height="120">
			<feColorMatrix type="matrix" values="1 0 0 0 0  0 1 0 0 0  0 0 1 0 0  0 0 0 1 0"/>
		</filter>
	</defs>
	
		<mask maskUnits="userSpaceOnUse" x="60" y="164.5" width="98" height="120" id="f_00000179623646379838200640000007017860070538567081_">
		<g style="filter:url(#Adobe_OpacityMaskFilter_00000083053326797024058150000011861018156824534416_);">
			<path id="e_00000183944162199625371430000011753056487216414882_" class="st1" d="M80.1,184.6l0,79.9&#xD;&#xA;				c13.6-5.9,31.3-10.4,51.4-12.6l6.5-67.3v0L80.1,184.6z"/>
		</g>
	</mask>
	<path class="st6" d="M60,284.5h98v-120H60V284.5z"/>
	<g transform="translate(75.636)">
		<defs>
			
				<filter id="Adobe_OpacityMaskFilter_00000124841205911688121340000000357917403526533252_" filterUnits="userSpaceOnUse" x="241.1" y="164.9" width="63.8" height="105.3">
				<feColorMatrix type="matrix" values="1 0 0 0 0  0 1 0 0 0  0 0 1 0 0  0 0 0 1 0"/>
			</filter>
		</defs>
		
			<mask maskUnits="userSpaceOnUse" x="241.1" y="164.9" width="63.8" height="105.3" id="h_00000083075297567841547420000005352946991363769000_">
			<g style="filter:url(#Adobe_OpacityMaskFilter_00000124841205911688121340000000357917403526533252_);">
				<path id="g_00000105420920695540006350000005849880450914173864_" class="st1" d="M261.1,185v2.1c1.4,0.3,6.5,1.7,6.5,5.3v57.8&#xD;&#xA;					h17.2V185L261.1,185L261.1,185z"/>
			</g>
		</mask>
		<path class="st8" d="M241.1,270.3h63.8V164.9h-63.8V270.3z"/>
	</g>
	<g transform="translate(29.545)">
		<defs>
			
				<filter id="Adobe_OpacityMaskFilter_00000090286632144506653130000001181502551888973741_" filterUnits="userSpaceOnUse" x="131.2" y="164.9" width="114.9" height="105.3">
				<feColorMatrix type="matrix" values="1 0 0 0 0  0 1 0 0 0  0 0 1 0 0  0 0 0 1 0"/>
			</filter>
		</defs>
		
			<mask maskUnits="userSpaceOnUse" x="131.2" y="164.9" width="114.9" height="105.3" id="j_00000001660805572338315870000010428127441209405590_">
			<g style="filter:url(#Adobe_OpacityMaskFilter_00000090286632144506653130000001181502551888973741_);">
				<path id="i_00000137846756804317398680000016117933796016814490_" class="st1" d="M172.1,185v2.1c2.1,0.4,6.6,1.7,4.8,5.8&#xD;&#xA;					l-25.6,57.4h13.5l8-17.9h28.4l7,17.9H226L200.6,185L172.1,185L172.1,185z M188,198.6l10.1,25.7h-21.6L188,198.6z"/>
			</g>
		</mask>
		<path class="st10" d="M131.2,270.3h114.9V164.9H131.2V270.3z"/>
	</g>
	<g transform="translate(106.364)">
		<defs>
			
				<filter id="Adobe_OpacityMaskFilter_00000147932108334792588310000009099753680093801907_" filterUnits="userSpaceOnUse" x="317.8" y="164.9" width="114.9" height="105.3">
				<feColorMatrix type="matrix" values="1 0 0 0 0  0 1 0 0 0  0 0 1 0 0  0 0 0 1 0"/>
			</filter>
		</defs>
		
			<mask maskUnits="userSpaceOnUse" x="317.8" y="164.9" width="114.9" height="105.3" id="l_00000046304928120007312330000006925387468364900498_">
			<g style="filter:url(#Adobe_OpacityMaskFilter_00000147932108334792588310000009099753680093801907_);">
				<path id="k_00000080198505635335826880000009295032217927421868_" class="st1" d="M358.7,185v2.1c2.1,0.4,6.6,1.7,4.8,5.8&#xD;&#xA;					l-25.6,57.4h13.5l8-17.9h28.4l7,17.9h17.8L387.1,185H358.7z M374.5,198.6l10.1,25.7H363L374.5,198.6L374.5,198.6z"/>
			</g>
		</mask>
		<path class="st12" d="M317.8,270.3h114.9V164.9H317.8V270.3z"/>
	</g>
	<g transform="translate(85.09)">
		<defs>
			
				<filter id="Adobe_OpacityMaskFilter_00000119813894966451633560000003450837348154023061_" filterUnits="userSpaceOnUse" x="265.5" y="164.9" width="116" height="105.3">
				<feColorMatrix type="matrix" values="1 0 0 0 0  0 1 0 0 0  0 0 1 0 0  0 0 0 1 0"/>
			</filter>
		</defs>
		
			<mask maskUnits="userSpaceOnUse" x="265.5" y="164.9" width="116" height="105.3" id="n_00000005984082674680456330000001031791347275991949_">
			<g style="filter:url(#Adobe_OpacityMaskFilter_00000119813894966451633560000003450837348154023061_);">
				<path id="m_00000152227360591668316720000002763346647388672955_" class="st1" d="M348.6,185l-19.9,47.8l-19-47.8h-24.1v2.1&#xD;&#xA;					c2.8,0.5,5.9,1.7,7.3,5.3l22.9,57.8h18.4l27.2-65.2L348.6,185L348.6,185z"/>
			</g>
		</mask>
		<path class="st14" d="M265.5,270.3h116V164.9h-116V270.3z"/>
	</g>
	<g transform="translate(49.636)">
		<defs>
			
				<filter id="Adobe_OpacityMaskFilter_00000141414409805663814040000011645955521983569329_" filterUnits="userSpaceOnUse" x="181.9" y="164.9" width="116" height="105.3">
				<feColorMatrix type="matrix" values="1 0 0 0 0  0 1 0 0 0  0 0 1 0 0  0 0 0 1 0"/>
			</filter>
		</defs>
		
			<mask maskUnits="userSpaceOnUse" x="181.9" y="164.9" width="116" height="105.3" id="p_00000106829903645582332490000014997519787610363051_">
			<g style="filter:url(#Adobe_OpacityMaskFilter_00000141414409805663814040000011645955521983569329_);">
				<path id="o_00000033371073914817824720000014147085138530235822_" class="st1" d="M265,185L245,232.8l-19-47.8h-24.1v2.1&#xD;&#xA;					c2.8,0.5,5.9,1.7,7.4,5.3l22.9,57.8h18.4l27.2-65.2L265,185L265,185z"/>
			</g>
		</mask>
		<path class="st16" d="M181.9,270.3h116V164.9h-116V270.3z"/>
	</g>
</g>
</svg>