<svg width="80" height="27" viewBox="0 0 80 27" fill="none" xmlns="http://www.w3.org/2000/svg">
<g clip-path="url(#clip0_807_393)">
<path d="M7.0188 22.8796H2.92716C2.4067 22.8796 1.90754 22.6729 1.53952 22.3049C1.1715 21.937 0.964754 21.438 0.964754 20.9176V13.3314L0.0685916 11.8273C0.0236877 11.7516 0 11.6652 0 11.5771C0 11.4891 0.0236877 11.4027 0.0685916 11.327L0.964754 9.82281V2.22682C0.962594 1.96781 1.01175 1.71092 1.10941 1.471C1.20706 1.23107 1.35129 1.01286 1.53373 0.828941C1.71617 0.645026 1.93321 0.499045 2.17238 0.399427C2.41154 0.299809 2.66807 0.248526 2.92716 0.248535H7.02532V1.22951H2.92716C2.79692 1.22949 2.66799 1.25539 2.54787 1.30571C2.42775 1.35602 2.31884 1.42975 2.22751 1.52258C2.13618 1.61541 2.06424 1.72549 2.01591 1.8464C1.96757 1.96731 1.94379 2.09663 1.94596 2.22682V9.94706C1.94531 10.0349 1.92042 10.1209 1.87401 10.1956L1.05962 11.5657L1.87401 12.9325C1.92042 13.0071 1.94531 13.0931 1.94596 13.181V20.9045C1.94596 21.1647 2.04933 21.4142 2.23334 21.5982C2.41735 21.7822 2.66693 21.8855 2.92716 21.8855H7.02532L7.0188 22.8796Z" fill="#AECC53"/>
<path d="M23.3491 22.8796H19.251V21.8986H23.3491C23.6094 21.8986 23.859 21.7952 24.043 21.6113C24.227 21.4273 24.3303 21.1778 24.3303 20.9176V13.1908C24.3314 13.1035 24.3551 13.0178 24.399 12.9423L25.2167 11.5755L24.399 10.2054C24.3551 10.1298 24.3314 10.0443 24.3303 9.95689V2.22682C24.3325 2.09663 24.3088 1.96731 24.2604 1.8464C24.2121 1.72549 24.1402 1.61541 24.0488 1.52258C23.9575 1.42975 23.8486 1.35602 23.7285 1.30571C23.6084 1.25539 23.4794 1.22949 23.3491 1.22951H19.251V0.248535H23.3491C23.6082 0.248526 23.8648 0.299809 24.1039 0.399427C24.3431 0.499045 24.5602 0.645026 24.7426 0.828941C24.925 1.01286 25.0692 1.23107 25.1669 1.471C25.2646 1.71092 25.3137 1.96781 25.3115 2.22682V9.80977L26.2077 11.3139C26.2526 11.3896 26.2763 11.476 26.2763 11.5641C26.2763 11.6521 26.2526 11.7385 26.2077 11.8142L25.3115 13.3183V20.9045C25.3115 21.4249 25.1048 21.9239 24.7368 22.2919C24.3688 22.6598 23.8696 22.8665 23.3491 22.8665" fill="#AECC53"/>
<path d="M20.4283 12.4224C20.1219 12.3887 19.8127 12.4523 19.5444 12.6041C19.2762 12.756 19.0625 12.9883 18.9337 13.2682C18.8049 13.5482 18.7675 13.8616 18.8268 14.1641C18.886 14.4665 19.039 14.7426 19.2639 14.9533C18.8034 16.0618 18.0519 17.0253 17.0886 17.7419C16.1254 18.4586 14.9864 18.9016 13.7921 19.0243V12.7624C14.6174 12.6581 15.4093 12.372 16.1106 11.9248C16.8119 11.4775 17.4052 10.8802 17.8477 10.1759C18.1288 10.1703 18.4024 10.0845 18.6363 9.92865C18.8703 9.77276 19.0548 9.55335 19.1681 9.29614C19.2815 9.03897 19.3189 8.75471 19.2761 8.47697C19.2333 8.19917 19.112 7.93941 18.9265 7.72825C18.741 7.51709 18.499 7.36334 18.229 7.2851C17.959 7.20685 17.6722 7.20736 17.4025 7.28657C17.1328 7.36579 16.8913 7.5204 16.7066 7.73223C16.5218 7.944 16.4014 8.20422 16.3596 8.48211C16.3286 8.68054 16.3391 8.88319 16.3904 9.07734C16.4416 9.27148 16.5324 9.45289 16.6572 9.61025C16.3297 10.0949 15.9066 10.5076 15.414 10.823C14.9213 11.1384 14.3694 11.35 13.7921 11.4447V5.32342C14.0904 5.17584 14.33 4.93176 14.472 4.63083C14.614 4.32989 14.6501 3.98979 14.5743 3.66579C14.4985 3.34179 14.3153 3.05294 14.0546 2.84617C13.7939 2.6394 13.4708 2.52689 13.138 2.52689C12.8051 2.52689 12.4821 2.6394 12.2214 2.84617C11.9606 3.05294 11.7775 3.34179 11.7016 3.66579C11.6259 3.98979 11.6619 4.32989 11.8039 4.63083C11.9459 4.93176 12.1855 5.17584 12.4838 5.32342V11.4447C11.9053 11.3512 11.352 11.1402 10.8581 10.8247C10.3642 10.5092 9.94016 10.0958 9.61216 9.61025C9.73695 9.45289 9.82781 9.27148 9.87902 9.07734C9.93023 8.88319 9.94072 8.68054 9.90979 8.48211C9.86801 8.20437 9.7477 7.9443 9.56309 7.73253C9.37848 7.52081 9.13716 7.36615 8.86765 7.28683C8.5981 7.20756 8.31153 7.20685 8.04156 7.28484C7.77165 7.36284 7.52962 7.51628 7.34398 7.72713C7.1583 7.93799 7.03672 8.19744 6.99356 8.47503C6.95041 8.75262 6.9875 9.03673 7.10037 9.294C7.21323 9.55121 7.39723 9.77088 7.63071 9.92712C7.86419 10.0834 8.13751 10.1697 8.41838 10.1759C8.86195 10.8813 9.4568 11.4794 10.1599 11.9267C10.863 12.374 11.6568 12.6595 12.4838 12.7624V19.0243C11.2877 18.9033 10.1467 18.461 9.18164 17.7443C8.2166 17.0276 7.46348 16.0632 7.00218 14.9533C7.24396 14.7249 7.40146 14.4216 7.44911 14.0925C7.49675 13.7634 7.43173 13.4279 7.26465 13.1404C7.09756 12.8529 6.83815 12.6302 6.5286 12.5087C6.21899 12.3871 5.87744 12.3737 5.55927 12.4706C5.24111 12.5675 4.96509 12.7691 4.77593 13.0426C4.58678 13.3161 4.49561 13.6455 4.51726 13.9773C4.53891 14.3091 4.6721 14.6238 4.89519 14.8705C5.1183 15.1171 5.41818 15.2811 5.74623 15.3358C6.29278 16.7137 7.21283 17.9119 8.40304 18.7957C9.59331 19.6795 11.0065 20.2139 12.4838 20.3388V26.7053H13.7921V20.3388C15.2683 20.2127 16.6801 19.6778 17.8691 18.7941C19.0581 17.9104 19.9772 16.7128 20.5232 15.3358C20.8734 15.2757 21.1899 15.0908 21.4145 14.8155C21.639 14.5401 21.7563 14.1929 21.7447 13.8378C21.7332 13.4828 21.5936 13.1438 21.3516 12.8837C21.1096 12.6236 20.7817 12.4597 20.4283 12.4224Z" fill="#006D69"/>
<path d="M38.548 1.79845H37.2397C37.1088 1.56219 36.9137 1.36775 36.677 1.23757C36.4403 1.10739 36.1716 1.04677 35.902 1.06272C34.8782 1.06272 34.1685 1.7919 34.1685 2.92656C34.1685 4.06122 34.8881 4.80676 35.951 4.80676C36.3349 4.82908 36.7133 4.70737 37.0121 4.46546C37.3109 4.22354 37.5087 3.87882 37.5668 3.4988H35.6043V2.62246H38.6919V3.60344C38.5605 4.24123 38.2098 4.81287 37.7008 5.21905C37.1918 5.62527 36.5564 5.84035 35.9052 5.82696C35.1323 5.82696 34.3911 5.52002 33.8446 4.97364C33.2981 4.42725 32.9911 3.68619 32.9911 2.91349C32.9911 2.14078 33.2981 1.39973 33.8446 0.853343C34.3911 0.306956 35.1323 0 35.9052 0C37.1775 0 38.1947 0.653981 38.561 1.78864" fill="#006D69"/>
<path d="M40.6836 5.78773H39.5388V1.25891H40.6836V1.96194C40.8257 1.72234 41.0291 1.52488 41.2728 1.38983C41.5166 1.25479 41.7918 1.18703 42.0704 1.19351V2.40011H41.7694C41.0924 2.40011 40.6836 2.6617 40.6836 3.53477V5.78773Z" fill="#006D69"/>
<path d="M44.8177 5.86294C43.5095 5.86294 42.5479 4.94738 42.5479 3.52497C42.5479 2.10256 43.48 1.18699 44.8177 1.18699C45.1158 1.17139 45.4138 1.21869 45.6923 1.32583C45.9708 1.43296 46.2237 1.59752 46.4344 1.80881C46.6451 2.02009 46.809 2.27336 46.9153 2.55214C47.0217 2.83092 47.0681 3.12897 47.0516 3.42688C47.0521 3.57465 47.0412 3.72222 47.0189 3.86831H43.709C43.7102 4.00869 43.7395 4.14742 43.795 4.27638C43.8505 4.40533 43.9311 4.52194 44.0323 4.61937C44.1334 4.71679 44.2529 4.79309 44.3838 4.84379C44.5147 4.8945 44.6545 4.9186 44.7949 4.91468C44.9839 4.92637 45.172 4.88001 45.3339 4.78182C45.4958 4.68364 45.6239 4.53832 45.7008 4.36534H46.9372C46.8019 4.81571 46.5197 5.20786 46.1356 5.47928C45.7515 5.75066 45.2876 5.88576 44.8177 5.86294ZM43.7155 3.09989H45.8644C45.8612 2.96357 45.8303 2.82931 45.7737 2.70526C45.7171 2.58121 45.6358 2.46995 45.5349 2.37823C45.434 2.28651 45.3155 2.21623 45.1866 2.17166C45.0577 2.12708 44.9211 2.10914 44.785 2.11891C44.515 2.11409 44.2534 2.21321 44.0543 2.39579C43.8552 2.57837 43.7339 2.83045 43.7155 3.09989Z" fill="#006D69"/>
<path d="M49.8644 5.86299C48.5562 5.86299 47.5749 4.9474 47.5749 3.52499C47.5749 2.10258 48.5071 1.187 49.8644 1.187C50.1622 1.17188 50.4598 1.21954 50.7379 1.32688C51.016 1.43423 51.2683 1.59886 51.4787 1.81009C51.6892 2.02132 51.8527 2.27443 51.9587 2.55297C52.0652 2.83152 52.1116 3.12927 52.0948 3.42689C52.0973 3.57472 52.0861 3.72243 52.0622 3.86832H48.7524C48.7545 4.00845 48.7843 4.14677 48.8401 4.27532C48.8959 4.40388 48.9767 4.52013 49.0776 4.61738C49.1785 4.71464 49.2976 4.79097 49.4282 4.842C49.5588 4.89303 49.6981 4.91773 49.8383 4.9147C50.0277 4.92614 50.216 4.87971 50.3784 4.7816C50.5408 4.68348 50.6695 4.53831 50.7475 4.36536H51.9873C51.8517 4.81516 51.5704 5.20689 51.1867 5.47826C50.8034 5.74959 50.3402 5.88499 49.871 5.86299H49.8644ZM48.7688 3.0999H50.9175C50.9144 2.96358 50.8835 2.82932 50.8269 2.70527C50.7703 2.58123 50.689 2.46997 50.5881 2.37824C50.4872 2.28652 50.3687 2.21624 50.2398 2.17167C50.1109 2.12709 49.9743 2.10916 49.8383 2.11893C49.5682 2.11411 49.3065 2.21323 49.1075 2.39581C48.9084 2.57838 48.7872 2.83046 48.7688 3.0999Z" fill="#006D69"/>
<path d="M56.1014 3.28626C56.1014 2.56034 55.7024 2.16796 55.0976 2.16796C54.4922 2.16796 54.077 2.56034 54.077 3.28626V5.78774H52.9325V1.25893H54.077V1.82461C54.2405 1.62164 54.4484 1.4593 54.6854 1.35036C54.9218 1.24142 55.1807 1.18886 55.441 1.1968C56.4943 1.1968 57.2464 1.8802 57.2464 3.13258V5.78774H56.1014V3.28626Z" fill="#006D69"/>
<path d="M35.2281 16.3103C34.0441 16.3103 33.1283 15.689 33.112 14.61H34.3254C34.3279 14.7182 34.3529 14.8247 34.3988 14.9228C34.4447 15.0209 34.5105 15.1084 34.592 15.1797C34.6734 15.2511 34.7689 15.3047 34.8722 15.3372C34.9755 15.3697 35.0844 15.3804 35.1921 15.3685C35.7318 15.3685 36.049 15.0841 36.049 14.6754C36.049 13.4393 33.1054 14.1849 33.1054 12.115C33.1054 11.085 33.9394 10.4801 35.1169 10.4801C36.2943 10.4801 37.0793 11.0785 37.1578 12.115H35.9018C35.8828 11.9168 35.7862 11.7341 35.633 11.6067C35.4799 11.4793 35.2826 11.4176 35.0841 11.4349C34.6328 11.4185 34.2992 11.6409 34.2992 12.1052C34.2992 13.2497 37.2232 12.6121 37.2232 14.623C37.2232 15.5222 36.5036 16.3332 35.2052 16.3332" fill="#006D69"/>
<path d="M40.2489 16.3266C39.7873 16.3221 39.3375 16.1811 38.9559 15.9215C38.5744 15.6619 38.2782 15.2952 38.1047 14.8676C37.9312 14.44 37.8881 13.9707 37.981 13.5186C38.0738 13.0667 38.2983 12.6522 38.6262 12.3275C38.9542 12.0028 39.3709 11.7824 39.8239 11.694C40.2769 11.6057 40.7459 11.6533 41.1719 11.8309C41.5979 12.0085 41.9617 12.3082 42.2177 12.6921C42.4736 13.0761 42.6102 13.5272 42.6102 13.9886C42.6209 14.3005 42.567 14.6112 42.4518 14.9012C42.3366 15.1912 42.1626 15.4543 41.9409 15.6738C41.7191 15.8934 41.4543 16.0647 41.1631 16.1771C40.8719 16.2894 40.5607 16.3403 40.2489 16.3266ZM40.2489 15.3457C40.8539 15.3457 41.4328 14.9042 41.4328 14.005C41.4328 13.1058 40.8703 12.6643 40.2652 12.6643C39.6601 12.6643 39.1139 13.096 39.1139 14.005C39.1139 14.914 39.6372 15.3457 40.2489 15.3457Z" fill="#006D69"/>
<path d="M43.5783 12.6644H43.0615V11.7226H43.5783V11.4937C43.5783 10.3819 44.2062 9.85876 45.4818 9.90129V10.8659C44.9258 10.8496 44.7394 11.0294 44.7394 11.5362V11.7226H45.5308V12.6644H44.7394V16.2612H43.5783V12.6644Z" fill="#006D69"/>
<path d="M46.4563 12.6644H45.9166V11.7226H46.4563V10.6043H47.6076V11.7226H48.6215V12.6644H47.6076V14.8552C47.6076 15.156 47.7286 15.2869 48.0883 15.2869H48.6215V16.2515H47.902C47.0352 16.2515 46.4563 15.8852 46.4563 14.8454V12.6644Z" fill="#006D69"/>
<path d="M48.9423 11.7226H50.1033L50.9012 15.1724L51.7682 11.7226H52.9783L53.8288 15.1658L54.6298 11.7226H55.7254L54.401 16.2514H53.1679L52.3404 13.0895L51.5159 16.2514H50.2733L48.9423 11.7226Z" fill="#006D69"/>
<path d="M58.1228 11.6507C58.4117 11.641 58.6981 11.7014 58.9585 11.8267C59.2189 11.952 59.4451 12.1384 59.6173 12.3701V11.7161H60.772V16.2449H59.6173V15.5909C59.4461 15.8272 59.2194 16.0178 58.9569 16.146C58.6945 16.2743 58.4051 16.3363 58.1131 16.3266C56.9682 16.3266 56.0555 15.3849 56.0555 13.9723C56.0555 12.5597 56.9682 11.6507 58.1228 11.6507ZM58.4173 12.6545C58.2507 12.6558 58.0866 12.6913 57.9348 12.759C57.7829 12.8267 57.6464 12.925 57.5343 13.0478C57.4222 13.1706 57.3371 13.3153 57.2836 13.4727C57.2301 13.63 57.2092 13.7968 57.2234 13.9625C57.2234 14.8192 57.8023 15.3097 58.4173 15.3097C58.5855 15.3077 58.7516 15.2709 58.905 15.2015C59.0583 15.1322 59.1959 15.0319 59.3085 14.9069C59.4217 14.7819 59.5073 14.6349 59.5603 14.4752C59.6132 14.3154 59.6331 14.1465 59.6173 13.9789C59.6173 13.1189 59.0451 12.6448 58.4173 12.6448" fill="#006D69"/>
<path d="M63.0354 16.2515H61.894V11.7226H63.0354V12.4257C63.1786 12.1863 63.3829 11.9891 63.627 11.8541C63.8711 11.7191 64.1467 11.6512 64.4255 11.6572V12.8638H64.1248C63.4446 12.8638 63.0354 13.1254 63.0354 13.9985V16.2515Z" fill="#006D69"/>
<path d="M67.173 16.3267C65.865 16.3267 64.9029 15.4111 64.9029 13.9887C64.9029 12.5663 65.8318 11.6507 67.173 11.6507C67.4711 11.6351 67.7692 11.6824 68.0474 11.7895C68.3261 11.8967 68.5788 12.0612 68.7898 12.2725C69.0002 12.4838 69.1643 12.7371 69.2708 13.0158C69.3768 13.2946 69.4232 13.5927 69.4069 13.8906C69.4074 14.0383 69.3967 14.1859 69.3743 14.332H66.0509C66.0535 14.4724 66.0831 14.611 66.1391 14.7398C66.1952 14.8686 66.2762 14.985 66.3776 15.0823C66.479 15.1796 66.5982 15.2558 66.7292 15.3066C66.8601 15.3575 66.9997 15.3819 67.1404 15.3784C67.3294 15.3901 67.5174 15.3437 67.6795 15.2455C67.8415 15.1473 67.9694 15.002 68.0464 14.829H69.2825C69.1475 15.2794 68.8652 15.6715 68.481 15.943C68.0968 16.2144 67.6331 16.3494 67.1633 16.3267H67.173ZM66.0611 13.5636H68.2099C68.2069 13.4273 68.1758 13.293 68.1192 13.169C68.0627 13.0449 67.9811 12.9337 67.8802 12.8419C67.7794 12.7502 67.6611 12.6799 67.5322 12.6354C67.4033 12.5908 67.2667 12.5728 67.1307 12.5826C66.8606 12.5778 66.5987 12.6769 66.3995 12.8595C66.2008 13.0421 66.0795 13.2942 66.0611 13.5636Z" fill="#006D69"/>
<path d="M33.2594 21.0124H36.7817V21.9345H34.4041V23.3962H36.2256V24.3052H34.4041V26.7152H33.2594V21.0124Z" fill="#006D69"/>
<path d="M39.6046 26.7903C39.143 26.7858 38.6931 26.6449 38.3116 26.3853C37.9301 26.1256 37.6339 25.7589 37.4604 25.3313C37.2869 24.9037 37.2439 24.4344 37.3367 23.9824C37.4295 23.5304 37.654 23.1159 37.9819 22.7912C38.3099 22.4666 38.7266 22.2461 39.1796 22.1578C39.6326 22.0694 40.1016 22.117 40.5276 22.2946C40.9536 22.4722 41.3175 22.7719 41.5734 23.1559C41.8293 23.5398 41.966 23.9909 41.966 24.4524C41.9767 24.7642 41.9227 25.0749 41.8075 25.3649C41.6923 25.655 41.5184 25.918 41.2966 26.1375C41.0748 26.3571 40.81 26.5285 40.5188 26.6408C40.2277 26.7531 39.9164 26.8041 39.6046 26.7903ZM39.6046 25.8094C40.2096 25.8094 40.7885 25.3679 40.7885 24.4687C40.7885 23.5695 40.2227 23.1281 39.6209 23.1281C39.0191 23.1281 38.4664 23.5597 38.4664 24.4687C38.4664 25.3778 38.9897 25.8094 39.6046 25.8094Z" fill="#006D69"/>
<path d="M47.0811 26.7152H45.9265V26.1429C45.7666 26.3458 45.5615 26.5085 45.3275 26.6181C45.0936 26.7277 44.8372 26.7811 44.579 26.774C43.5259 26.774 42.7638 26.0874 42.7638 24.8448V22.1864H43.9085V24.6813C43.9085 25.4072 44.3108 25.7996 44.9126 25.7996C45.5144 25.7996 45.9265 25.4072 45.9265 24.6813V22.1864H47.0811V26.7152Z" fill="#006D69"/>
<path d="M51.3855 24.2137C51.3855 23.4878 50.9829 23.0954 50.3813 23.0954C49.7795 23.0954 49.3576 23.4878 49.3576 24.2137V26.7152H48.2128V22.1864H49.3576V22.752C49.5213 22.5488 49.73 22.3863 49.9673 22.2774C50.2045 22.1684 50.4638 22.116 50.7247 22.1242C51.7778 22.1242 52.5299 22.8076 52.5299 24.06V26.7152H51.3855V24.2137Z" fill="#006D69"/>
<path d="M55.4018 22.1144C55.6856 22.1109 55.9664 22.1725 56.2227 22.2943C56.479 22.4162 56.7037 22.5951 56.88 22.8174V20.6691H58.0413V26.7151H56.8932V26.0448C56.7297 26.2859 56.507 26.4811 56.2466 26.6116C55.9857 26.7421 55.6963 26.8037 55.4048 26.7904C54.2537 26.7904 53.3381 25.8486 53.3381 24.436C53.3381 23.0234 54.2537 22.1144 55.415 22.1144H55.4018ZM55.6993 23.1182C55.5332 23.12 55.3692 23.1558 55.2178 23.2237C55.066 23.2915 54.9299 23.3899 54.8178 23.5125C54.7057 23.6352 54.6201 23.7797 54.5666 23.9369C54.5131 24.0941 54.4922 24.2606 54.5055 24.4262C54.4907 24.594 54.5106 24.763 54.563 24.923C54.616 25.083 54.7006 25.2305 54.8127 25.3566C54.9243 25.4827 55.0604 25.5846 55.2132 25.6563C55.3656 25.728 55.5312 25.7678 55.6993 25.7734C56.3307 25.7734 56.8999 25.2993 56.8999 24.4425C56.8999 23.5858 56.3307 23.1084 55.6993 23.1084" fill="#006D69"/>
<path d="M60.9355 22.1144C61.2244 22.1047 61.5113 22.1651 61.7717 22.2904C62.0321 22.4157 62.2578 22.6021 62.4306 22.8337V22.1798H63.5852V26.7086H62.4306V26.0546C62.2588 26.2909 62.0321 26.4815 61.7697 26.6098C61.5078 26.738 61.2178 26.8 60.9258 26.7904C59.7844 26.7904 58.8688 25.8486 58.8688 24.436C58.8688 23.0234 59.7844 22.1144 60.9355 22.1144ZM61.23 23.1183C61.0639 23.1194 60.8993 23.155 60.7475 23.2227C60.5957 23.2903 60.4596 23.3887 60.3475 23.5115C60.2354 23.6343 60.1498 23.7789 60.0963 23.9364C60.0428 24.0938 60.0224 24.2605 60.0362 24.4262C60.0362 25.2829 60.615 25.7734 61.23 25.7734C61.3987 25.7714 61.5648 25.7346 61.7182 25.6653C61.8716 25.5959 62.0086 25.4956 62.1218 25.3706C62.2344 25.2456 62.32 25.0986 62.373 24.9389C62.4265 24.7792 62.4458 24.6102 62.4306 24.4426C62.4306 23.5826 61.8583 23.1084 61.23 23.1084" fill="#006D69"/>
<path d="M64.8866 23.128H64.347V22.1863H64.8866V21.068H66.051V22.1863H67.065V23.128H66.051V25.3189C66.051 25.6197 66.1722 25.7505 66.532 25.7505H67.065V26.7151H66.3455C65.4787 26.7151 64.8999 26.3489 64.8999 25.3091L64.8866 23.128Z" fill="#006D69"/>
<path d="M67.7554 20.9797C67.7452 20.839 67.7783 20.6985 67.8492 20.5767C67.92 20.4548 68.0265 20.3571 68.1534 20.2963C68.2808 20.2355 68.4234 20.2144 68.563 20.2357C68.7027 20.2571 68.8326 20.3198 68.9355 20.4159C69.039 20.512 69.1108 20.6369 69.1424 20.7745C69.1735 20.912 69.1628 21.0558 69.1113 21.1871C69.0599 21.3185 68.9702 21.4313 68.8535 21.5109C68.7373 21.5906 68.5997 21.6334 68.4586 21.6337C68.3689 21.6381 68.2797 21.6245 68.1957 21.5938C68.1116 21.5632 68.0346 21.5159 67.9689 21.455C67.9032 21.394 67.8507 21.3206 67.814 21.239C67.7773 21.1573 67.7574 21.0692 67.7554 20.9797ZM67.8797 22.1863H69.0242V26.7151H67.8797V22.1863Z" fill="#006D69"/>
<path d="M72.161 26.7904C71.6994 26.7852 71.2499 26.6437 70.8688 26.3837C70.4877 26.1237 70.1921 25.7568 70.0189 25.3291C69.8461 24.9015 69.8033 24.4322 69.8966 23.9804C69.9898 23.5287 70.2145 23.1145 70.5427 22.7901C70.8708 22.4658 71.2877 22.2457 71.7401 22.1576C72.1931 22.0695 72.6619 22.1173 73.0879 22.295C73.5139 22.4726 73.8772 22.7723 74.133 23.1562C74.3888 23.5401 74.5254 23.9911 74.5254 24.4524C74.5356 24.7644 74.4815 25.0751 74.3659 25.3652C74.2502 25.6552 74.0759 25.9182 73.8538 26.1377C73.6321 26.3572 73.3671 26.5285 73.0757 26.6408C72.7842 26.7531 72.4729 26.8041 72.161 26.7904ZM72.161 25.8094C72.7659 25.8094 73.3483 25.368 73.3483 24.4687C73.3483 23.5695 72.7822 23.1281 72.1773 23.1281C71.572 23.1281 71.0257 23.5597 71.0257 24.4687C71.0257 25.3777 71.5491 25.8094 72.161 25.8094Z" fill="#006D69"/>
<path d="M78.5386 24.2137C78.5386 23.4878 78.1396 23.0954 77.5348 23.0954C76.9294 23.0954 76.5106 23.4878 76.5106 24.2137V26.7152H75.3692V22.1864H76.5172V22.752C76.6813 22.5488 76.8897 22.3863 77.1271 22.2774C77.3641 22.1684 77.6234 22.116 77.8843 22.1242C78.9376 22.1242 79.6897 22.8076 79.6897 24.06V26.7152H78.5452L78.5386 24.2137Z" fill="#006D69"/>
</g>
<defs>
<clipPath id="clip0_807_393">
<rect width="80" height="27" fill="white"/>
</clipPath>
</defs>
</svg>
