<svg width="32" height="32" viewBox="0 0 32 32" fill="none" xmlns="http://www.w3.org/2000/svg">
<rect width="32" height="32" fill="#006D69"/>
<path d="M10.4107 24.5295H6.67358C6.19821 24.5295 5.74229 24.342 5.40615 24.0082C5.07001 23.6744 4.88118 23.2218 4.88118 22.7497V15.868L4.06265 14.5035C4.02164 14.4348 4 14.3565 4 14.2766C4 14.1968 4.02164 14.1184 4.06265 14.0497L4.88118 12.6852V5.79458C4.87921 5.55962 4.9241 5.32659 5.0133 5.10894C5.10249 4.8913 5.23423 4.69335 5.40086 4.52651C5.5675 4.35967 5.76574 4.22725 5.98418 4.13688C6.20262 4.04651 6.43694 3.99999 6.67358 4H10.4167V4.88988H6.67358C6.55462 4.88986 6.43687 4.91336 6.32715 4.959C6.21743 5.00465 6.11796 5.07153 6.03454 5.15574C5.95112 5.23995 5.88542 5.3398 5.84127 5.44948C5.79712 5.55917 5.7754 5.67648 5.77738 5.79458V12.7979C5.77679 12.8776 5.75405 12.9557 5.71167 13.0234L4.96782 14.2662L5.71167 15.5061C5.75405 15.5738 5.77679 15.6518 5.77738 15.7316V22.7379C5.77738 22.9739 5.87179 23.2002 6.03986 23.3671C6.20794 23.534 6.43589 23.6277 6.67358 23.6277H10.4167L10.4107 24.5295Z" fill="#AECC53"/>
<path d="M25.3264 24.5295H21.5833V23.6396H25.3264C25.5641 23.6396 25.792 23.5459 25.9601 23.379C26.1282 23.2121 26.2226 22.9857 26.2226 22.7497V15.7405C26.2236 15.6612 26.2452 15.5835 26.2854 15.515L27.0322 14.2751L26.2854 13.0323C26.2452 12.9637 26.2236 12.8861 26.2226 12.8068V5.79458C26.2246 5.67648 26.2029 5.55917 26.1587 5.44948C26.1146 5.3398 26.0489 5.23995 25.9655 5.15574C25.882 5.07153 25.7826 5.00465 25.6729 4.959C25.5631 4.91336 25.4453 4.88986 25.3264 4.88988H21.5833V4H25.3264C25.563 3.99999 25.7973 4.04651 26.0158 4.13688C26.2342 4.22725 26.4325 4.35967 26.5991 4.52651C26.7658 4.69335 26.8975 4.8913 26.9867 5.10894C27.0759 5.32659 27.1208 5.55962 27.1188 5.79458V12.6733L27.9374 14.0378C27.9784 14.1065 28 14.1849 28 14.2647C28 14.3446 27.9784 14.423 27.9374 14.4917L27.1188 15.8561V22.7379C27.1188 23.2099 26.93 23.6626 26.5938 23.9963C26.2577 24.3301 25.8018 24.5176 25.3264 24.5176" fill="#AECC53"/>
<path d="M22.6586 15.0434C22.3787 15.0128 22.0963 15.0705 21.8513 15.2082C21.6063 15.3459 21.4111 15.5567 21.2935 15.8107C21.1758 16.0647 21.1417 16.349 21.1958 16.6233C21.2499 16.8977 21.3896 17.1481 21.5951 17.3392C21.1744 18.3448 20.488 19.2189 19.6082 19.8689C18.7285 20.519 17.6881 20.9209 16.5973 21.0322V15.3518C17.3511 15.2572 18.0743 14.9977 18.7149 14.5919C19.3555 14.1862 19.8974 13.6444 20.3016 13.0055C20.5583 13.0004 20.8082 12.9226 21.0218 12.7812C21.2355 12.6398 21.404 12.4407 21.5076 12.2074C21.6111 11.9741 21.6453 11.7163 21.6062 11.4643C21.5671 11.2123 21.4563 10.9767 21.2869 10.7852C21.1174 10.5936 20.8964 10.4541 20.6498 10.3831C20.4032 10.3122 20.1412 10.3126 19.8949 10.3845C19.6485 10.4563 19.428 10.5966 19.2592 10.7887C19.0905 10.9809 18.9805 11.2169 18.9423 11.469C18.9141 11.649 18.9236 11.8328 18.9704 12.0089C19.0172 12.185 19.1002 12.3496 19.2142 12.4924C18.915 12.932 18.5286 13.3064 18.0786 13.5925C17.6287 13.8786 17.1246 14.0705 16.5973 14.1564V8.6036C16.8697 8.46975 17.0886 8.24833 17.2183 7.97534C17.348 7.70235 17.3809 7.39383 17.3117 7.09992C17.2425 6.80601 17.0752 6.54398 16.837 6.35641C16.5989 6.16884 16.3038 6.06677 15.9998 6.06677C15.6958 6.06677 15.4008 6.16884 15.1626 6.35641C14.9244 6.54398 14.7571 6.80601 14.6879 7.09992C14.6187 7.39383 14.6516 7.70235 14.7813 7.97534C14.911 8.24833 15.1299 8.46975 15.4023 8.6036V14.1564C14.8739 14.0716 14.3685 13.8802 13.9174 13.594C13.4663 13.3078 13.079 12.9329 12.7794 12.4924C12.8934 12.3496 12.9764 12.185 13.0232 12.0089C13.07 11.8328 13.0795 11.649 13.0513 11.469C13.0131 11.217 12.9033 10.9811 12.7346 10.789C12.566 10.5969 12.3456 10.4567 12.0994 10.3847C11.8532 10.3128 11.5915 10.3121 11.3449 10.3829C11.0984 10.4537 10.8773 10.5929 10.7077 10.7841C10.5382 10.9754 10.4271 11.2108 10.3877 11.4626C10.3483 11.7144 10.3821 11.9721 10.4852 12.2055C10.5883 12.4388 10.7564 12.6381 10.9696 12.7798C11.1829 12.9216 11.4325 12.9999 11.6891 13.0055C12.0942 13.6454 12.6375 14.1879 13.2797 14.5937C13.9219 14.9995 14.6469 15.2585 15.4023 15.3518V21.0322C14.3099 20.9225 13.2677 20.5213 12.3862 19.8711C11.5048 19.2209 10.8169 18.3461 10.3955 17.3392C10.6164 17.1321 10.7602 16.8569 10.8038 16.5584C10.8473 16.2599 10.7879 15.9555 10.6353 15.6947C10.4827 15.4339 10.2457 15.2319 9.96298 15.1216C9.68023 15.0113 9.36824 14.9992 9.07764 15.0871C8.78705 15.175 8.53494 15.3578 8.36217 15.606C8.1894 15.8541 8.10613 16.1529 8.12591 16.4539C8.14568 16.7549 8.26733 17.0404 8.4711 17.2641C8.67486 17.4878 8.94878 17.6366 9.24842 17.6863C9.74759 18.9362 10.588 20.0231 11.6751 20.8249C12.7622 21.6266 14.053 22.1113 15.4023 22.2247V28H16.5973V22.2247C17.9456 22.1103 19.2351 21.625 20.321 20.8234C21.407 20.0217 22.2465 18.9354 22.7452 17.6863C23.0651 17.6317 23.3542 17.464 23.5593 17.2142C23.7644 16.9645 23.8715 16.6495 23.861 16.3274C23.8504 16.0053 23.7229 15.6979 23.5019 15.4618C23.2809 15.2258 22.9813 15.0772 22.6586 15.0434" fill="white"/>
</svg>
